<svg xmlns="http://www.w3.org/2000/svg" width="48" height="57" viewBox="0 0 48 57" fill="none">
  <g filter="url(#filter0_di_2415_526)">
    <path d="M24.5 2C15.9415 2 9 8.87451 9 17.3539C9 30.5657 19.5591 40.5712 23.2492 43.6611C23.9714 44.2702 25.0321 44.2702 25.7542 43.6611C29.4409 40.5712 40 30.5657 40 17.3539C40 8.87451 33.062 2 24.5 2ZM24.5 27.1917C19.0132 27.1917 14.5663 22.7878 14.5663 17.3539C14.5663 11.92 19.0132 7.51261 24.5 7.51261C29.9868 7.51261 34.4371 11.92 34.4371 17.3539C34.4371 22.7878 29.9868 27.1917 24.5 27.1917Z" fill="#79B937"/>
  </g>
  <defs>
    <filter id="filter0_di_2415_526" x="-1" y="-4" width="51" height="62.1179" filterUnits="userSpaceOnUse" color-interpolation-filters="sRGB">
      <feFlood flood-opacity="0" result="BackgroundImageFix"/>
      <feColorMatrix in="SourceAlpha" type="matrix" values="0 0 0 0 0 0 0 0 0 0 0 0 0 0 0 0 0 0 127 0" result="hardAlpha"/>
      <feOffset dy="4"/>
      <feGaussianBlur stdDeviation="5"/>
      <feComposite in2="hardAlpha" operator="out"/>
      <feColorMatrix type="matrix" values="0 0 0 0 0 0 0 0 0 0 0 0 0 0 0 0 0 0 0.25 0"/>
      <feBlend mode="normal" in2="BackgroundImageFix" result="effect1_dropShadow_2415_526"/>
      <feBlend mode="normal" in="SourceGraphic" in2="effect1_dropShadow_2415_526" result="shape"/>
      <feColorMatrix in="SourceAlpha" type="matrix" values="0 0 0 0 0 0 0 0 0 0 0 0 0 0 0 0 0 0 127 0" result="hardAlpha"/>
      <feOffset dy="1"/>
      <feGaussianBlur stdDeviation="0.5"/>
      <feComposite in2="hardAlpha" operator="arithmetic" k2="-1" k3="1"/>
      <feColorMatrix type="matrix" values="0 0 0 0 0 0 0 0 0 0 0 0 0 0 0 0 0 0 0.25 0"/>
      <feBlend mode="normal" in2="shape" result="effect2_innerShadow_2415_526"/>
    </filter>
  </defs>
</svg>